<?xml version="1.0" encoding="UTF-8"?><!DOCTYPE svg PUBLIC "-//W3C//DTD SVG 1.1//EN" "http://www.w3.org/Graphics/SVG/1.1/DTD/svg11.dtd"><svg xmlns="http://www.w3.org/2000/svg" xmlns:xlink="http://www.w3.org/1999/xlink"><defs>
<filter id="filter0_f" x="0" y="0" width="308" height="25" filterUnits="userSpaceOnUse" color-interpolation-filters="sRGB">
<feFlood flood-opacity="0" result="BackgroundImageFix"/>
<feBlend mode="normal" in="SourceGraphic" in2="BackgroundImageFix" result="shape"/>
<feGaussianBlur stdDeviation="2" result="effect1_foregroundBlur"/>
</filter>
<linearGradient id="paint0_linear" x1="4" y1="12.9999" x2="304" y2="13" gradientUnits="userSpaceOnUse">
<stop stop-opacity="0"/>
<stop offset="0.49798"/>
<stop offset="0.932292" stop-opacity="0"/>
</linearGradient>
</defs><symbol id="android-logo">
<path d="M34.89 14.06H8.1V33.2c0 .92.34 1.8.96 2.47a3.7 3.7 0 002.43 1.16v7.46c.04.73.37 1.42.92 1.93a2.99 2.99 0 004.05 0c.55-.5.88-1.2.92-1.93v-7.44h8.24v7.44c.04.73.37 1.42.92 1.93a2.99 2.99 0 004.05 0c.55-.5.88-1.2.92-1.93v-7.46a3.7 3.7 0 002.43-1.16c.63-.67.97-1.55.97-2.46V14.4l-.03-.34zM2.95 15.74c.78 0 1.53.3 2.08.85.56.54.87 1.27.87 2.04v12.4a2.84 2.84 0 01-.86 2.05 2.95 2.95 0 01-2.09.85c-.78 0-1.53-.3-2.09-.85A2.87 2.87 0 010 31.03v-12.4a2.84 2.84 0 01.87-2.04 2.95 2.95 0 012.08-.85zM40.06 15.74c.78 0 1.53.3 2.08.85.55.54.86 1.27.86 2.04v12.4a2.84 2.84 0 01-.86 2.05 2.95 2.95 0 01-2.08.85c-.79 0-1.54-.3-2.1-.85a2.87 2.87 0 01-.86-2.05v-12.4a2.84 2.84 0 01.87-2.04 2.95 2.95 0 012.09-.85zM8.17 12.06h26.57a10.4 10.4 0 00-3.26-7.3L34.05.5a.3.3 0 00-.12-.46.32.32 0 00-.42.1L31.09 4.3A16.7 16.7 0 0021.46.9a16.98 16.98 0 00-9.58 3.4L9.5.2a.32.32 0 00-.18-.16.33.33 0 00-.25 0 .31.31 0 00-.11.42l2.5 4.25a10.44 10.44 0 00-3.29 7.36zm17.7-5.21c0-.4.17-.78.45-1.06a1.55 1.55 0 012.17 0 1.49 1.49 0 010 2.12 1.55 1.55 0 01-2.17 0 1.49 1.49 0 01-.45-1.06zm-11.38 0c0-.4.16-.78.45-1.06a1.55 1.55 0 012.17 0 1.49 1.49 0 010 2.12 1.55 1.55 0 01-2.17 0 1.49 1.49 0 01-.45-1.06z" fill="#A4C639"/>
</symbol><symbol id="apple-logo" viewBox="0 0 47 56">
<path d="M39.2449 29.7391C39.2544 32.1546 39.994 34.5144 41.3723 36.5268C42.7506 38.5393 44.7071 40.1162 47 41.0627C46.0779 43.8922 44.7301 46.5744 43.0003 49.0227C40.5985 52.4356 38.0949 55.8386 34.1562 55.9273C30.2176 56.0161 29.0676 53.708 24.6303 53.708C20.193 53.708 18.8292 55.8583 15.1654 55.9964C11.5016 56.1345 8.47889 52.2778 6.07705 48.8846C1.1207 41.98 -2.67543 29.246 2.41322 20.6842C3.60995 18.6123 5.34099 16.8769 7.43708 15.6476C9.53317 14.4183 11.9225 13.7373 14.3716 13.6711C18.0964 13.6021 21.6178 16.0976 23.8975 16.0976C26.1772 16.0976 30.4619 13.0892 34.9602 13.533C37.0437 13.6063 39.0815 14.1457 40.9142 15.1091C42.7468 16.0725 44.3247 17.4337 45.5243 19.0863C45.2495 19.254 39.2144 22.657 39.2754 29.7391H39.2449ZM31.9783 8.93654C34.1591 6.45976 35.2387 3.24645 34.9806 0C31.6761 0.302095 28.6167 1.81996 26.4317 4.2414C24.5692 6.33251 22.9307 9.68618 23.3785 12.9018C26.625 13.1484 29.9327 11.3038 31.9478 8.95627" fill="white"/>
</symbol><symbol id="arrow" viewBox="0 0 22 41">
<path opacity="0.3" d="M2.0413 20.5035L21.7483 1.4144C21.8281 1.3379 21.8914 1.24683 21.9346 1.14646C21.9778 1.04608 22 0.938398 22 0.829635C22 0.720871 21.9778 0.613187 21.9346 0.512814C21.8914 0.41244 21.8281 0.321369 21.7483 0.24487C21.6686 0.167255 21.5738 0.105671 21.4694 0.0636507C21.365 0.0216304 21.2532 0 21.1401 0C21.0271 0 20.9153 0.0216304 20.8109 0.0636507C20.7065 0.105671 20.6117 0.167255 20.532 0.24487L0.252535 19.9088C0.17249 19.9862 0.108978 20.0781 0.0656429 20.1793C0.0223074 20.2805 0 20.389 0 20.4985C0 20.6081 0.0223074 20.7166 0.0656429 20.8178C0.108978 20.919 0.17249 21.0109 0.252535 21.0883L20.532 40.7621C20.6967 40.9157 20.9167 41.001 21.1453 41C21.3139 40.9985 21.4783 40.9488 21.6181 40.8572C21.7578 40.7656 21.8666 40.6362 21.9309 40.485C21.9952 40.3339 22.0122 40.1677 21.9797 40.0072C21.9473 39.8467 21.8668 39.6991 21.7483 39.5827L2.0413 20.5035Z" fill="#283645"/>
</symbol><symbol id="contrast">
<g>
<path d="M16 4a12 12 0 110 24 12 12 0 010-24zm0-4a16 16 0 100 32 16 16 0 000-32zM16 24.29a8.52 8.52 0 000-17"/>
</g>
</symbol><symbol id="crop">
<path d="M32 28h4V12a4 4 0 00-4-4H16v4h16v16zm-20 4V0H8v8H0v4h8v20a4 4 0 004 4h20v8h4v-8h8v-4H12z"/>
</symbol><symbol id="cut" viewBox="0 0 44 44">
<path d="M32 28H36V12C36 10.9391 35.5786 9.92172 34.8284 9.17157C34.0783 8.42143 33.0609 8 32 8H16V12H32V28ZM12 32V0H8V8H0V12H8V32C8 33.0609 8.42143 34.0783 9.17157 34.8284C9.92172 35.5786 10.9391 36 12 36H32V44H36V36H44V32H12Z"/>
</symbol><symbol id="facebook">
<path d="M6.5 3.2H9V0H6.02C2.76.17 1.6 2.27 2.08 5.82H0v3.33h2.08V18h3.94V9.15h2.96V5.82H6c-.02-1-.04-2.3.5-2.63z" fill="#D22856"/>
</symbol><symbol id="fill">
<g>
<path d="M33.12 17.88L15.24 0l-2.83 2.83 4.76 4.76L6.88 17.88a3 3 0 000 4.24l11 11a3 3 0 004.24 0l11-11a3 3 0 000-4.24zM10.41 20L20 10.42 29.59 20H10.41zM38 23s-4 4.33-4 7a4 4 0 108 0c0-2.67-4-7-4-7zM48 40H0v3h48v-3z"/>
</g>
</symbol><symbol id="grey-bg" viewBox="0 0 320 828">
<path d="M-426 115.804L746 0V828H-426V115.804Z" fill="#F2F2F2"/>
</symbol><symbol id="heart" viewBox="0 0 13 12">
<path d="M6.46867 12C6.3589 12.0014 6.25012 11.9798 6.14988 11.9367C6.04963 11.8935 5.96033 11.8298 5.88815 11.75C1.95926 7.42 1.03665 6.44 0.860416 6.17C0.307088 5.49497 0.00416162 4.66056 0 3.8C0.00441359 3.07425 0.223059 2.36473 0.63034 1.7545C1.03762 1.14428 1.61668 0.658598 2.29973 0.354328C2.98278 0.0500576 3.74155 -0.0602132 4.48721 0.036425C5.23287 0.133063 5.93456 0.432611 6.51014 0.9C7.22774 0.319491 8.13412 0.00090711 9.07066 0C10.1136 0.00264761 11.1129 0.404172 11.8494 1.11652C12.5859 1.82888 12.9995 2.79391 12.9995 3.8C13.014 4.67715 12.6845 5.5272 12.0769 6.18L7.03883 11.74C6.9678 11.8185 6.88016 11.8814 6.78182 11.9246C6.68348 11.9677 6.5767 11.99 6.46867 11.99V12ZM2.07329 5.28C2.29099 5.54 4.63381 8.12 6.46867 10.14L10.947 5.2C11.3073 4.81798 11.5005 4.3163 11.486 3.8C11.486 3.18205 11.2316 2.5894 10.7786 2.15244C10.3256 1.71548 9.71126 1.47 9.07066 1.47C8.69007 1.47297 8.31512 1.55909 7.97398 1.7219C7.63285 1.8847 7.33439 2.11996 7.10103 2.41C7.02566 2.49603 6.9321 2.56553 6.82661 2.61382C6.72113 2.66211 6.60615 2.68809 6.48941 2.69C6.37337 2.68847 6.25936 2.6605 6.15667 2.60836C6.05398 2.55622 5.96552 2.4814 5.89852 2.39C5.66784 2.10104 5.37087 1.86758 5.03093 1.70796C4.69099 1.54833 4.31732 1.46688 3.93926 1.47C3.48505 1.47534 3.04153 1.6036 2.65919 1.84016C2.27684 2.07673 1.97103 2.41211 1.77658 2.8081C1.58213 3.2041 1.50684 3.64481 1.5593 4.08006C1.61176 4.51531 1.78985 4.9276 2.07329 5.27V5.28Z" fill="#D22856"/>
</symbol><symbol id="hit" viewBox="0 0 74 74">
<path d="M74 0L37 37L0 74V41L41 0H74Z" fill="#D22856"/>
<path d="M27.9192 37.3147L26.9863 38.2476L21.9785 37.0392L23.1531 42.0808L22.2831 42.9509L20.9393 36.9087L15.3757 35.7244L16.2844 34.8157L20.8378 35.8598L19.8082 31.2919L20.6831 30.417L21.8384 35.9516L27.9192 37.3147ZM21.8722 29.2279L22.6408 28.4593L26.5706 32.3892C27.2956 33.1142 27.9289 33.7925 28.4702 34.4242L28.5089 34.3855L26.5754 24.5247L27.4745 23.6256L34.5414 30.6925L33.768 31.4659L29.8769 27.5748C29.2291 26.927 28.5766 26.2197 27.9192 25.4527L27.8757 25.4962L29.8382 35.3957L28.9391 36.2948L21.8722 29.2279ZM38.6549 26.579L37.8332 27.4007L31.4962 21.0637L29.2581 23.3017L28.5283 22.5718L33.826 17.2741L34.5559 18.004L32.3179 20.242L38.6549 26.579Z" fill="white"/>
</symbol><symbol id="html-academy" viewBox="0 0 27 34">
<path d="M13.6426 0.0157537L13.5 0L0 1.40733V26.0129L13.5 34L27 26.0129V1.40733L13.6426 0.0157537ZM25.2344 25.0151L13.5 31.9573L1.76561 25.0151V14.9293L13.4507 21.8451L13.4701 23.0984L5.45351 18.3548L5.44295 19.5801L13.4894 24.3885L13.5088 25.675L5.46408 20.9174L5.45351 22.1427L13.5 26.9511L21.6239 22.1182V20.8929V16.909L25.2432 14.7595L25.2344 25.0151ZM25.2344 13.4519L22.0147 15.3319L20.5325 16.2071L13.4666 12.0201L13.456 13.2454L19.4957 16.818L19.4429 16.8495L19.3126 16.9247L18.4536 17.4166L13.4666 14.4689L13.456 15.6942L17.3921 18.0222L16.4591 18.6314L16.438 18.6436L13.4666 16.902L13.456 18.1273L15.4029 19.2615L13.4155 20.4483L1.7973 13.5762L13.4349 6.61831L25.2344 13.4519ZM25.2344 12.2266L13.4401 5.31075L1.76561 12.2196V2.9897L13.5 1.76442L25.2344 2.9897V12.2266Z" fill="#D22856"/>
</symbol><symbol id="htmlacademy" viewBox="0 0 60 60"><path fill="#2E368F" d="M30.2 5h-.2l-19.7 2.1v36.2l19.7 11.7 19.7-11.7v-36.2l-19.5-2.1zm17 36.8l-17.2 10.2-17.2-10.2v-14.8l17.1 10.2v1.8l-11.7-7v1.8l11.8 7.1v1.9l-11.8-7v1.8l11.8 7 11.9-7.1v-7.6l5.3-3.2v15.1zm-.1-17l-4.7 2.8-2.2 1.3-10.3-6.1v1.8l8.8 5.3h-.1l-.2.1-1.3.7-7.3-4.3v1.8l5.8 3.4-1.4.9-4.3-2.6v1.8l2.9 1.7-2.9 1.7-17-10.1 17-10.2 17.2 10zm.1-1.8l-17.3-10.2-17.1 10.2v-13.6l17.2-1.8 17.2 1.8v13.6z"/></symbol><symbol id="logo-pink">
<path d="M0 1.55A1.29 1.29 0 011.26.26h7.13c5.06 0 8.39 2.7 8.39 7.13v.06c0 4.85-4.04 7.36-8.8 7.36H2.53v6.8A1.28 1.28 0 011.27 23 1.27 1.27 0 010 21.61V1.55zm8.07 10.97c3.7 0 6.14-2 6.14-4.99v-.06c0-3.2-2.4-4.87-5.96-4.87H2.6v9.88l5.48.04zM21.6 1.39A1.28 1.28 0 0122.85 0a1.27 1.27 0 011.27 1.39V21.6A1.28 1.28 0 0122.86 23a1.27 1.27 0 01-1.27-1.39V1.4zM30.67 1.42A1.28 1.28 0 0131.93.17h.34a1.54 1.54 0 011.29.74l13.6 17.4V1.36A1.24 1.24 0 0148.39.12a1.23 1.23 0 011.23 1.24v20.3a1.14 1.14 0 01-1.15 1.17h-.13a1.7 1.7 0 01-1.31-.78L33.12 4.25v17.4a1.26 1.26 0 01-1.2 1.25 1.23 1.23 0 01-1.2-1.25V1.42h-.05zM55.94 1.39A1.28 1.28 0 0157.2 0a1.27 1.27 0 011.26 1.39v12.3L71.23.54c.26-.27.62-.43 1-.45a1.27 1.27 0 011.21 1.26 1.29 1.29 0 01-.41.9l-7.95 7.9 8.57 10.52c.23.26.35.6.35.94a1.31 1.31 0 01-1.34 1.28 1.23 1.23 0 01-1-.58L63.3 11.86l-4.83 4.85v4.88a1.27 1.27 0 01-1.26 1.27 1.26 1.26 0 01-1.26-1.27V1.4h-.01z" fill="#fff"/>
</symbol><symbol id="logotype-blue-tablet">
<path d="M71 18.55a1.29 1.29 0 011.26-1.29h7.13c5.06 0 8.39 2.7 8.39 7.13v.06c0 4.85-4.04 7.36-8.8 7.36h-5.44v6.8A1.28 1.28 0 0172.27 40 1.27 1.27 0 0171 38.61V18.55zm8.07 10.97c3.7 0 6.14-2 6.14-4.99v-.06c0-3.2-2.4-4.87-5.96-4.87H73.6v9.88l5.48.04zM92.6 18.39A1.28 1.28 0 0193.85 17a1.27 1.27 0 011.27 1.39V38.6A1.28 1.28 0 0193.86 40a1.27 1.27 0 01-1.27-1.39V18.4zM101.67 18.42a1.28 1.28 0 011.26-1.25h.34a1.53 1.53 0 011.29.74l13.6 17.4V18.36a1.24 1.24 0 011.23-1.24 1.23 1.23 0 011.23 1.24v20.3a1.16 1.16 0 01-.32.83 1.13 1.13 0 01-.83.34h-.13a1.69 1.69 0 01-1.31-.78l-13.91-17.8v17.4a1.26 1.26 0 01-1.2 1.25 1.23 1.23 0 01-1.2-1.25V18.42h-.05zM126.94 18.39A1.28 1.28 0 01128.2 17a1.27 1.27 0 011.26 1.39v12.3l12.76-13.14c.26-.27.62-.43 1-.45a1.27 1.27 0 011.21 1.26 1.3 1.3 0 01-.41.9l-7.95 7.9 8.57 10.52c.23.26.35.6.35.94a1.33 1.33 0 01-.4.92 1.29 1.29 0 01-.94.36 1.23 1.23 0 01-1-.58l-8.36-10.46-4.83 4.85v4.88a1.28 1.28 0 01-.78 1.17 1.26 1.26 0 01-1.74-1.17V18.4h-.01z" fill="#283645"/>
<path fill-rule="evenodd" clip-rule="evenodd" d="M53.9 6.59l5.03 21.14a1.42 1.42 0 01-.75 1.72c-.2.09-.43.13-.65.11h-4.01a11.63 11.63 0 01-11.49 10.32c-5.92 0-10.8-4.5-11.49-10.32h-1.96A11.75 11.75 0 0116.97 40c-6 0-10.94-4.57-11.61-10.47H1.45A1.36 1.36 0 01.3 29a1.42 1.42 0 01-.24-1.27L5.1 6.6C5.46 4.26 7.64 0 13.5 0c.38 0 .76.16 1.03.44a1.5 1.5 0 010 2.1c-.27.27-.65.43-1.03.43-4.71 0-5.44 3.7-5.5 4.1L3.34 26.6h2.03a11.75 11.75 0 0111.6-10.3c5.94 0 10.84 4.48 11.6 10.3h1.99a11.63 11.63 0 0111.47-10.19c5.89 0 10.75 4.46 11.48 10.23v-.06h2.14L51 7.08c-.07-.41-.77-4.1-5.5-4.1-.39 0-.76-.17-1.03-.44a1.5 1.5 0 010-2.1c.27-.28.64-.44 1.03-.44 5.85 0 8.03 4.26 8.38 6.59zM25.66 29.56a9.12 9.12 0 00-.02-2.97 8.85 8.85 0 00-8.68-7.38 8.85 8.85 0 00-8.82 8.94 8.85 8.85 0 008.81 8.94c4.4 0 8.04-3.26 8.71-7.53zm24.94 0a8.75 8.75 0 00-8.58-10.23 8.75 8.75 0 00-8.58 10.23 8.73 8.73 0 008.58 7.4c4.33 0 7.91-3.2 8.58-7.4z" fill="#D22856"/>
</symbol><symbol id="logotype-pink" viewBox="0 0 145 40">
<path d="M71.005 18.5486C71.0049 18.2125 71.1358 17.8898 71.3697 17.6494C71.6037 17.409 71.922 17.2701 72.2568 17.2623H79.39C84.4469 17.2623 87.7751 19.9645 87.7751 24.3918V24.4516C87.7751 29.2977 83.7415 31.8105 78.9727 31.8105H73.5384V38.611C73.5539 38.7874 73.5328 38.9651 73.4762 39.1329C73.4196 39.3006 73.3289 39.4547 73.2097 39.5854C73.0906 39.716 72.9457 39.8204 72.7842 39.8918C72.6227 39.9631 72.4481 40 72.2717 40C72.0952 40 71.9207 39.9631 71.7592 39.8918C71.5977 39.8204 71.4527 39.716 71.3336 39.5854C71.2145 39.4547 71.1237 39.3006 71.0671 39.1329C71.0106 38.9651 70.9894 38.7874 71.005 38.611V18.5486ZM79.0721 29.5171C82.7778 29.5171 85.2119 27.5228 85.2119 24.5314V24.4716C85.2119 21.2608 82.8175 19.5956 79.2509 19.5956H73.588V29.4772L79.0721 29.5171Z" fill="#283645"/>
<path d="M92.5935 18.389C92.5779 18.2126 92.5991 18.0349 92.6556 17.8671C92.7122 17.6994 92.803 17.5452 92.9221 17.4146C93.0412 17.2839 93.1862 17.1796 93.3477 17.1082C93.5092 17.0369 93.6837 17 93.8602 17C94.0366 17 94.2112 17.0369 94.3727 17.1082C94.5342 17.1796 94.6791 17.2839 94.7982 17.4146C94.9174 17.5452 95.0081 17.6994 95.0647 17.8671C95.1213 18.0349 95.1425 18.2126 95.1269 18.389V38.611C95.1425 38.7874 95.1213 38.9651 95.0647 39.1329C95.0081 39.3006 94.9174 39.4548 94.7982 39.5854C94.6791 39.7161 94.5342 39.8204 94.3727 39.8918C94.2112 39.9631 94.0366 40 93.8602 40C93.6837 40 93.5092 39.9631 93.3477 39.8918C93.1862 39.8204 93.0412 39.7161 92.9221 39.5854C92.803 39.4548 92.7122 39.3006 92.6556 39.1329C92.5991 38.9651 92.5779 38.7874 92.5935 38.611V18.389Z" fill="#283645"/>
<path d="M101.674 18.419C101.682 18.0891 101.816 17.775 102.05 17.5426C102.283 17.3102 102.597 17.1776 102.926 17.1725H103.273C103.532 17.1778 103.784 17.2482 104.008 17.3771C104.232 17.5061 104.42 17.6894 104.555 17.9104L118.156 35.3104V18.3591C118.156 18.0312 118.286 17.7167 118.517 17.4848C118.748 17.2529 119.061 17.1227 119.388 17.1227C119.715 17.1227 120.028 17.2529 120.259 17.4848C120.49 17.7167 120.62 18.0312 120.62 18.3591V38.6508C120.625 38.8051 120.599 38.9589 120.544 39.1028C120.488 39.2467 120.403 39.3777 120.296 39.4878C120.188 39.5979 120.059 39.6848 119.916 39.7432C119.774 39.8016 119.621 39.8303 119.467 39.8275H119.338C119.074 39.8092 118.818 39.7294 118.591 39.5944C118.363 39.4593 118.17 39.2728 118.027 39.0497L104.118 21.2408V38.6508C104.116 38.9722 103.991 39.2805 103.769 39.5124C103.547 39.7442 103.246 39.882 102.926 39.8973C102.601 39.892 102.291 39.7581 102.064 39.5246C101.837 39.2911 101.711 38.9771 101.714 38.6508V18.419H101.674Z" fill="#283645"/>
<path d="M126.938 18.389C126.923 18.2126 126.944 18.0349 127.001 17.8671C127.057 17.6994 127.148 17.5452 127.267 17.4146C127.386 17.2839 127.531 17.1796 127.693 17.1082C127.854 17.0369 128.029 17 128.205 17C128.382 17 128.556 17.0369 128.718 17.1082C128.879 17.1796 129.024 17.2839 129.143 17.4146C129.262 17.5452 129.353 17.6994 129.41 17.8671C129.466 18.0349 129.487 18.2126 129.472 18.389V30.6837L142.228 17.5514C142.49 17.2797 142.845 17.1191 143.222 17.1027C143.547 17.1155 143.855 17.2528 144.082 17.4865C144.309 17.7202 144.439 18.0325 144.444 18.3591C144.437 18.529 144.396 18.6957 144.325 18.8498C144.253 19.0038 144.152 19.1421 144.026 19.2565L136.078 27.1539L144.652 37.6836C144.876 37.9441 145 38.2768 145 38.6209C144.996 38.7933 144.958 38.9633 144.889 39.121C144.819 39.2786 144.719 39.4209 144.594 39.5395C144.47 39.6582 144.323 39.7509 144.162 39.8123C144.002 39.8737 143.831 39.9026 143.659 39.8973C143.459 39.8891 143.264 39.8322 143.091 39.7314C142.918 39.6306 142.772 39.4891 142.665 39.3189L134.3 28.859L129.472 33.7051V38.591C129.472 38.7573 129.439 38.922 129.376 39.0756C129.312 39.2293 129.219 39.3689 129.102 39.4865C128.985 39.6041 128.846 39.6973 128.693 39.761C128.54 39.8246 128.376 39.8574 128.21 39.8574C128.044 39.8574 127.88 39.8246 127.727 39.761C127.574 39.6973 127.435 39.6041 127.318 39.4865C127.201 39.3689 127.108 39.2293 127.044 39.0756C126.981 38.922 126.948 38.7573 126.948 38.591V18.389H126.938Z" fill="#283645"/>
<path fill-rule="evenodd" clip-rule="evenodd" d="M53.8917 6.58616L58.9302 27.7312C59.0013 27.9491 59.0184 28.1815 58.98 28.4078C58.9417 28.6341 58.849 28.8472 58.7102 29.0284C58.5715 29.2096 58.3909 29.3532 58.1845 29.4465C57.978 29.5398 57.7522 29.58 57.5268 29.5635H53.5201C52.8298 35.3747 47.9494 39.8784 42.0315 39.8784C36.1136 39.8784 31.2332 35.3747 30.543 29.5635H28.5778C27.8869 35.442 22.9527 40 16.9685 40C10.9742 40 6.0335 35.4266 5.35571 29.5337H1.45014C1.22961 29.5445 1.00974 29.5014 0.808914 29.4082C0.608085 29.315 0.432119 29.1743 0.295711 28.9979C0.159304 28.8214 0.0664152 28.6144 0.0248022 28.3941C-0.0168108 28.1737 -0.00593994 27.9464 0.0565069 27.7312L5.10477 6.58616C5.45562 4.25872 7.63865 0 13.4861 0C13.8738 0 14.2456 0.156518 14.5197 0.435122C14.7939 0.713727 14.9479 1.0916 14.9479 1.4856C14.9479 1.87961 14.7939 2.25748 14.5197 2.53608C14.2456 2.81468 13.8738 2.9712 13.4861 2.9712C8.7789 2.9712 8.04797 6.6654 7.9895 7.07146L3.3408 26.6022H5.37467C6.12089 20.7847 11.0272 16.2918 16.9685 16.2918C22.9066 16.2918 27.8107 20.7798 28.5611 26.5926L30.5587 26.6017C31.3043 20.8518 36.1567 16.4134 42.0315 16.4134C47.9178 16.4134 52.7776 20.8691 53.5086 26.6353V26.5824H55.6459L51.007 7.07146C50.9387 6.6654 50.237 2.9712 45.5104 2.9712C45.1227 2.9712 44.7509 2.81468 44.4767 2.53608C44.2026 2.25748 44.0485 1.87961 44.0485 1.4856C44.0485 1.0916 44.2026 0.713727 44.4767 0.435122C44.7509 0.156518 45.1227 0 45.5104 0C51.3578 0 53.5408 4.25872 53.8917 6.58616ZM25.6722 29.5635C25.7448 29.1018 25.7825 28.6283 25.7825 28.1459C25.7825 27.6164 25.7371 27.0977 25.65 26.5935C24.9252 22.3982 21.3141 19.2097 16.9685 19.2097C12.6203 19.2097 9.00753 22.402 8.28571 26.601C8.19945 27.1028 8.15447 27.619 8.15447 28.1459C8.15447 28.6205 8.19096 29.0864 8.26125 29.541C8.92191 33.8136 12.5687 37.0821 16.9685 37.0821C21.3605 37.0821 25.0023 33.8251 25.6722 29.5635ZM50.6138 29.5635C50.6874 29.102 50.7256 28.6285 50.7256 28.1459C50.7256 23.2777 46.8331 19.3313 42.0315 19.3313C37.2299 19.3313 33.3374 23.2777 33.3374 28.1459C33.3374 28.6285 33.3756 29.102 33.4492 29.5635C34.118 33.7577 37.7058 36.9605 42.0315 36.9605C46.3572 36.9605 49.945 33.7577 50.6138 29.5635Z" fill="#D22856"/>
</symbol><symbol id="logotype-white-desktop">
<path d="M72.2 18.42c0-.33.13-.65.36-.89.24-.23.56-.37.9-.38h7.21c5.11 0 8.48 2.68 8.48 7.06v.06c0 4.8-4.08 7.29-8.9 7.29h-5.5v6.73a1.24 1.24 0 01-.33.97 1.29 1.29 0 01-1.46.3 1.29 1.29 0 01-.7-.75 1.24 1.24 0 01-.07-.52V18.42zm8.15 10.87c3.75 0 6.2-1.98 6.2-4.94v-.06c0-3.18-2.41-4.83-6.02-4.83H74.8v9.79l5.55.04zM94.02 18.27a1.24 1.24 0 01.33-.97 1.29 1.29 0 011.47-.3 1.28 1.28 0 01.7.75c.05.17.08.34.06.52v20.02a1.25 1.25 0 01-.33.97 1.28 1.28 0 01-.95.4 1.3 1.3 0 01-.95-.4 1.26 1.26 0 01-.33-.97V18.27zM103.2 18.3c0-.33.14-.64.38-.87.23-.23.55-.36.88-.37h.36a1.58 1.58 0 011.3.73l13.74 17.23V18.24c0-.33.13-.64.37-.87a1.26 1.26 0 011.76 0c.23.23.36.54.36.87v20.1a1.09 1.09 0 01-.32.82 1.15 1.15 0 01-.84.34h-.13a1.74 1.74 0 01-1.33-.77l-14.06-17.64v17.24c0 .32-.13.62-.35.85-.23.23-.53.37-.86.39-.32-.01-.64-.14-.87-.37a1.21 1.21 0 01-.35-.87V18.3h-.04zM128.74 18.27a1.24 1.24 0 01.33-.97 1.29 1.29 0 01.95-.4 1.3 1.3 0 01.95.4 1.26 1.26 0 01.33.97v12.17l12.9-13a1.5 1.5 0 011-.45c.33.02.64.15.87.38.23.23.36.54.37.87a1.26 1.26 0 01-.42.89l-8.04 7.82 8.67 10.42c.22.26.35.59.35.93a1.27 1.27 0 01-.41.91 1.32 1.32 0 01-.95.36 1.26 1.26 0 01-1-.58l-8.46-10.36-4.88 4.8v4.84a1.24 1.24 0 01-.79 1.16 1.3 1.3 0 01-1.66-.68c-.07-.15-.1-.31-.1-.48v-20h-.01z" fill="#fff"/>
<path d="M98.94 9.75c-.97 0-1.9-.38-2.57-1.05a3.55 3.55 0 01-1.08-2.53c0 .95-.38 1.86-1.06 2.53a3.67 3.67 0 01-2.57 1.05c.96 0 1.89.38 2.57 1.05a3.55 3.55 0 011.06 2.53c0-.95.4-1.86 1.07-2.53a3.69 3.69 0 012.58-1.05z" fill="#D22856"/><path d="M43.29 19.07h.73a2.47 2.47 0 00-2.14-1.22 2.03 2.03 0 01-1.9-1.33c-.72.2-1.42.48-2.1.8h.2c.53 0 1.04.22 1.41.59.38.37.6.87.6 1.4v.28a8.98 8.98 0 013.2-.52z" fill="#fff"/>
<path d="M60.73 27.65L55.54 6.57C55.18 4.25 52.93 0 46.9 0c-.4 0-.78.16-1.06.43a1.47 1.47 0 000 2.1c.28.28.66.43 1.06.43 4.87 0 5.6 3.69 5.67 4.09l4.78 19.45h-2.1a11.72 11.72 0 00-5.32-8.41 2.5 2.5 0 00-1.54 2.27 2 2 0 010 .26 9.15 9.15 0 014.02 7.37c0 .5-.06 1-.14 1.48a8.85 8.85 0 01-3.05 5.4 9.13 9.13 0 01-11.77 0 8.85 8.85 0 01-3.05-5.4 9.03 9.03 0 01-.14-1.48 9.1 9.1 0 01.95-3.95c-.5-.03-.98-.26-1.33-.62a1.96 1.96 0 01-.54-1.35.7.7 0 00-.19-.49 11.57 11.57 0 00-1.8 4.94H29.5a11.78 11.78 0 00-3.94-7.54 12.17 12.17 0 00-16.1 0 11.78 11.78 0 00-3.93 7.54H3.44l4.8-19.47c.05-.4.8-4.09 5.66-4.09.4 0 .78-.15 1.06-.43a1.47 1.47 0 000-2.1A1.52 1.52 0 0013.9 0C7.87 0 5.62 4.25 5.26 6.57L.06 27.65A1.38 1.38 0 00.3 28.9a1.42 1.42 0 001.2.53H5.5c.08.61.21 1.22.38 1.81.07-.1.1-.23.1-.35A2.03 2.03 0 018.5 29a8.84 8.84 0 01.06-2.53 8.85 8.85 0 013.04-5.41 9.13 9.13 0 0111.8 0 8.85 8.85 0 013.03 5.41 8.87 8.87 0 01-2.53 7.75 9.18 9.18 0 01-6.38 2.62 9.15 9.15 0 01-5.45-1.7c-.36.3-.83.47-1.3.48-.2 0-.4.08-.53.22a.73.73 0 00-.22.52c0 .27-.06.54-.18.8a12.09 12.09 0 007.64 2.7c2.95.01 5.8-1.04 8.02-2.95a11.79 11.79 0 004-7.44h1.82c.34 2.9 1.74 5.57 3.95 7.51a12.17 12.17 0 0016.06 0 11.78 11.78 0 003.95-7.5h4.02a1.44 1.44 0 001.22-.54 1.38 1.38 0 00.22-1.3z" fill="#fff"/>
<path d="M50.92 15.92a4.58 4.58 0 01-4.18-2.74 4.37 4.37 0 01-.34-1.7 4.4 4.4 0 01-1.33 3.14c-.84.83-2 1.3-3.19 1.3 1.2 0 2.35.47 3.2 1.3a4.42 4.42 0 011.32 3.14c0-1.18.48-2.3 1.32-3.14.85-.83 2-1.3 3.2-1.3zM38.07 19.38c-.73 0-1.43-.28-1.95-.8a2.7 2.7 0 01-.8-1.91c0 .72-.3 1.4-.81 1.91-.52.51-1.22.8-1.95.8.73 0 1.43.29 1.95.8.51.5.8 1.2.8 1.9 0-.71.3-1.4.81-1.9.52-.51 1.22-.8 1.95-.8zM10.79 33.64c-.73 0-1.43-.3-1.94-.8a2.7 2.7 0 01-.8-1.91c0 .71-.3 1.4-.81 1.91-.52.51-1.22.8-1.95.8.73 0 1.43.3 1.95.8.51.5.8 1.2.8 1.92 0-.72.3-1.4.8-1.92.52-.5 1.22-.8 1.95-.8z" fill="#D22856"/>
</symbol><symbol id="logotype-white-tablet">
<path class="page-header__img-tablet" fill-rule="evenodd" clip-rule="evenodd" d="M53.9 6.59l5.03 21.14a1.42 1.42 0 01-.75 1.72c-.2.09-.43.13-.65.11h-4.01a11.63 11.63 0 01-11.49 10.32c-5.92 0-10.8-4.5-11.49-10.32h-1.96A11.75 11.75 0 0116.97 40c-6 0-10.94-4.57-11.61-10.47H1.45A1.36 1.36 0 01.3 29a1.42 1.42 0 01-.24-1.27L5.1 6.6C5.46 4.26 7.64 0 13.5 0c.38 0 .76.16 1.03.44a1.5 1.5 0 010 2.1c-.27.27-.65.43-1.03.43-4.71 0-5.44 3.7-5.5 4.1L3.34 26.6h2.03a11.75 11.75 0 0111.6-10.3c5.94 0 10.84 4.48 11.6 10.3h1.99a11.63 11.63 0 0111.47-10.19c5.89 0 10.75 4.46 11.48 10.23v-.06h2.14L51 7.08c-.07-.41-.77-4.1-5.5-4.1-.39 0-.76-.17-1.03-.44a1.5 1.5 0 010-2.1c.27-.28.64-.44 1.03-.44 5.85 0 8.03 4.26 8.38 6.59zM25.66 29.56a9.12 9.12 0 00-.02-2.97 8.85 8.85 0 00-8.68-7.38 8.85 8.85 0 00-8.82 8.94 8.85 8.85 0 008.81 8.94c4.4 0 8.04-3.26 8.71-7.53zm24.94 0a8.75 8.75 0 00-8.58-10.23 8.75 8.75 0 00-8.58 10.23 8.73 8.73 0 008.58 7.4c4.33 0 7.91-3.2 8.58-7.4z" fill="red"/>
<path class="logo__word logo__word--header logo__word--footer" d="M71 18.55a1.29 1.29 0 011.26-1.29h7.13c5.06 0 8.39 2.7 8.39 7.13v.06c0 4.85-4.04 7.36-8.8 7.36h-5.44v6.8A1.28 1.28 0 0172.27 40 1.27 1.27 0 0171 38.61V18.55zm8.07 10.97c3.7 0 6.14-2 6.14-4.99v-.06c0-3.2-2.4-4.87-5.96-4.87H73.6v9.88l5.48.04zM92.6 18.39A1.28 1.28 0 0193.85 17a1.27 1.27 0 011.27 1.39V38.6A1.28 1.28 0 0193.86 40a1.27 1.27 0 01-1.27-1.39V18.4zM101.67 18.42a1.28 1.28 0 011.26-1.25h.34a1.53 1.53 0 011.29.74l13.6 17.4V18.36a1.24 1.24 0 011.23-1.24 1.23 1.23 0 011.23 1.24v20.3a1.16 1.16 0 01-.32.83 1.13 1.13 0 01-.83.34h-.13a1.69 1.69 0 01-1.31-.78l-13.91-17.8v17.4a1.26 1.26 0 01-1.2 1.25 1.23 1.23 0 01-1.2-1.25V18.42h-.05zM126.94 18.39A1.28 1.28 0 01128.2 17a1.27 1.27 0 011.26 1.39v12.3l12.76-13.14c.26-.27.62-.43 1-.45a1.27 1.27 0 011.21 1.26 1.3 1.3 0 01-.41.9l-7.95 7.9 8.57 10.52c.23.26.35.6.35.94a1.33 1.33 0 01-.4.92 1.29 1.29 0 01-.94.36 1.23 1.23 0 01-1-.58l-8.36-10.46-4.83 4.85v4.88a1.28 1.28 0 01-.78 1.17 1.26 1.26 0 01-1.74-1.17V18.4h-.01z" fill="red"/>
</symbol><symbol id="mail-icon"><path d="M14.91 1.68c1.2-.93.91-1.68-.65-1.68H3.73c-1.56 0-1.85.76-.66 1.68l3.75 2.9a3.7 3.7 0 004.35 0l3.74-2.9z" fill="#D22856"/><path d="M11.91 6.5L9.7 8.25c-.08.04-.17.08-.26.1l-.1.05c-.1.05-.22.07-.34.09l-.33-.06-.12-.07a1.18 1.18 0 01-.24-.13L6.08 6.5l-3.9-2.97C1 2.6 0 3.03 0 4.48v5.86a2.48 2.48 0 00.82 1.87 2.87 2.87 0 002.01.79h12.32a3.04 3.04 0 002.02-.78c.27-.25.48-.54.62-.87.14-.32.21-.67.21-1.01V4.48c0-1.45-1-1.86-2.18-.93L11.91 6.5z" fill="#D22856"/></symbol><symbol id="microsoft-logo">
<path d="M20.9 19.52H0V0h20.9v19.52z" fill="#F05423"/>
<path d="M44 19.52H23.1V0H44v19.52z" fill="#84C441"/>
<path d="M20.9 41H0V21.48h20.9V41z" fill="#2DABE2"/>
<path d="M44 41H23.1V21.48H44V41z" fill="#F9BC15"/></symbol><symbol id="no"><path d="M15.64 13.5L26.55 2.6A1.5 1.5 0 0025.48 0c-.4 0-.78.16-1.07.44l-10.9 10.92L2.59.45A1.5 1.5 0 000 1.52c0 .4.16.78.44 1.07L11.37 13.5.45 24.4a1.5 1.5 0 000 2.15 1.51 1.51 0 002.14 0L13.5 15.65l10.9 10.9a1.52 1.52 0 001.91.2 1.51 1.51 0 00.23-2.33L15.65 13.5z" fill="#F25B26"/></symbol><symbol id="phone-icon"><path d="M10.04 0C6.46 0 2.91.6 1.58 1.82A6.4 6.4 0 000 5.87c0 .21.09.41.25.56.15.15.37.23.59.23l3.24-.25h.08a.86.86 0 00.58-.23.78.78 0 00.24-.56V4.05a.83.83 0 01.26-.62.92.92 0 01.65-.26h8.16c.24 0 .48.09.65.25.18.17.27.4.27.63V5.6c0 .2.09.4.24.55.15.15.36.24.58.24h.09l3.28.25a.88.88 0 00.6-.23.8.8 0 00.24-.56V5.7a6.46 6.46 0 00-1.56-3.86C17.2.6 13.62 0 10.04 0zm0 10.3c-.33 0-.65.1-.93.27a1.6 1.6 0 00-.61.71 1.5 1.5 0 00.36 1.73 1.76 1.76 0 001.82.34c.3-.12.57-.32.75-.58a1.53 1.53 0 00-.2-2 1.67 1.67 0 00-1.19-.47zM8.8 6.76v-.97c0-.25-.11-.5-.3-.68-.2-.18-.45-.28-.72-.28-.27 0-.53.1-.72.28-.2.18-.3.43-.3.68v.97l-5.73 5.69a1.93 1.93 0 00-.63 1.42v1.58c0 .42.18.83.49 1.12.31.3.74.47 1.18.47h.42v.97a.95.95 0 00.3.7 1.05 1.05 0 00.74.29 1.1 1.1 0 00.74-.29.99.99 0 00.3-.7v-.97h10.91v.97c0 .26.11.51.3.7.2.19.47.29.75.29.27 0 .54-.1.74-.29.2-.19.3-.44.3-.7v-.97h.42a1.75 1.75 0 001.19-.46 1.58 1.58 0 00.48-1.13v-1.58a1.84 1.84 0 00-.62-1.42l-5.65-5.69v-.97a.96.96 0 00-.3-.7c-.2-.18-.46-.29-.74-.29-.28 0-.54.1-.74.3-.2.18-.3.43-.3.7v.96H8.78zm1.25 1.93c.66 0 1.3.19 1.86.54.55.34.98.84 1.23 1.42a3.01 3.01 0 01-.73 3.45 3.52 3.52 0 01-3.64.69 3.31 3.31 0 01-1.5-1.17 3.05 3.05 0 01.42-4c.62-.6 1.47-.93 2.36-.93z" fill="#D22856"/></symbol><symbol id="quotes" viewBox="0 0 79 63">
<path d="M35.1468 6.97257L30.8388 0C28.3886 1.48142 0 12.0588 0 39.1293C0 46.2698 0.341426 63 18.9793 63C30.2162 63 32.9778 52.8473 32.9778 49.5783C32.9778 27.8508 11.5081 35.5838 11.5081 35.5838C11.5081 17.7771 31.3911 9.06631 35.1468 6.97257Z" fill="#EFEFEF"/>
<path d="M79 6.97257L74.7322 0C72.302 1.48142 43.8833 12.0588 43.8833 39.1293C43.8833 46.2698 44.2247 63 62.8726 63C74.0995 63 76.8611 52.8473 76.8611 49.5783C76.8611 27.8508 55.3914 35.5838 55.3914 35.5838C55.3914 17.7771 75.3146 9.06631 79 6.97257Z" fill="#EFEFEF"/>
</symbol><symbol id="shadow-phone" viewBox="0 0 308 25">
<g opacity="0.3" filter="url(#filter0_f)">
<ellipse cx="154" cy="12.5" rx="150" ry="8.5" fill="url(#paint0_linear)"/>
</g>

</symbol><symbol id="tick" viewBox="0 0 22 16">
<path d="M21.7001 0.284331C21.5105 0.102082 21.2557 0 20.9903 0C20.7249 0 20.47 0.102082 20.2805 0.284331L6.70324 13.6028L1.73472 8.72901C1.64045 8.63578 1.52831 8.56178 1.40474 8.51128C1.28118 8.46079 1.14865 8.43479 1.01479 8.43479C0.88093 8.43479 0.748397 8.46079 0.624833 8.51128C0.50127 8.56178 0.389122 8.63578 0.294859 8.72901C0.106004 8.91537 0 9.16747 0 9.43024C0 9.69302 0.106004 9.94512 0.294859 10.1315L5.98331 15.7115C6.07806 15.8037 6.19042 15.8767 6.31396 15.9262C6.4375 15.9756 6.56979 16.0007 6.70324 16C6.96925 15.9989 7.22416 15.8953 7.41303 15.7115L21.7001 1.69675C21.7951 1.60428 21.8705 1.49427 21.922 1.37306C21.9735 1.25186 22 1.12185 22 0.990541C22 0.859234 21.9735 0.729226 21.922 0.608017C21.8705 0.486809 21.7951 0.376798 21.7001 0.284331Z" fill="#D22856"/>
</symbol><symbol id="timer-desktop" viewBox="0 0 298 345">
<path d="M264.586 102.035L269.936 96.676C277.656 88.9579 279.066 77.7407 273.066 71.7522C267.066 65.7637 255.846 67.1533 248.136 74.8714L242.746 80.2601C221.304 62.8474 195.42 51.7734 168.016 48.288V38.7004H175.676C186.586 38.7004 195.516 29.9925 195.516 19.3552C195.516 8.71783 186.586 0 175.676 0H122.356C111.446 0 102.516 8.70784 102.516 19.3552C102.516 30.0025 111.446 38.7004 122.356 38.7004H130.016V48.288C97.2841 52.4916 66.8739 67.4402 43.5572 90.7884C20.2404 114.137 5.33669 144.563 1.18437 177.294C-2.96795 210.025 3.86613 243.208 20.6143 271.636C37.3625 300.065 63.0771 322.13 93.7233 334.37C124.369 346.61 158.213 348.332 189.944 339.266C221.675 330.199 249.497 310.858 269.046 284.277C288.594 257.695 298.763 225.377 297.956 192.394C297.149 159.411 285.412 127.629 264.586 102.035ZM149.016 306.184C127.226 306.184 105.926 299.724 87.8082 287.621C69.6906 275.518 55.5699 258.315 47.2316 238.189C38.8934 218.062 36.7123 195.916 40.964 174.55C45.2158 153.184 55.7094 133.558 71.118 118.155C86.5265 102.752 106.158 92.2625 127.529 88.0138C148.901 83.765 171.053 85.9477 191.184 94.2856C211.314 102.624 228.52 116.742 240.624 134.857C252.729 152.971 259.188 174.267 259.186 196.051C259.184 225.261 247.575 253.274 226.915 273.927C206.254 294.581 178.234 306.184 149.016 306.184Z" fill="#DEDEDE"/>
<circle cx="149" cy="196" r="117" stroke="#D22856" stroke-width="18"/>
<path d="M145.133 239H85.25V226.402L106.754 204.664C113.121 198.141 117.281 193.629 119.234 191.129C121.188 188.59 122.594 186.246 123.453 184.098C124.312 181.949 124.742 179.723 124.742 177.418C124.742 173.98 123.785 171.422 121.871 169.742C119.996 168.062 117.477 167.223 114.312 167.223C110.992 167.223 107.77 167.984 104.645 169.508C101.52 171.031 98.2578 173.199 94.8594 176.012L85.0156 164.352C89.2344 160.758 92.7305 158.219 95.5039 156.734C98.2773 155.25 101.305 154.117 104.586 153.336C107.867 152.516 111.539 152.105 115.602 152.105C120.953 152.105 125.68 153.082 129.781 155.035C133.883 156.988 137.066 159.723 139.332 163.238C141.598 166.754 142.73 170.777 142.73 175.309C142.73 179.254 142.027 182.965 140.621 186.441C139.254 189.879 137.105 193.414 134.176 197.047C131.285 200.68 126.168 205.855 118.824 212.574L107.809 222.945V223.766H145.133V239ZM215.621 221.246H205.309V239H187.613V221.246H151.051V208.648L188.609 153.336H205.309V207.184H215.621V221.246ZM187.613 207.184V192.652C187.613 190.23 187.711 186.715 187.906 182.105C188.102 177.496 188.258 174.82 188.375 174.078H187.906C186.461 177.281 184.723 180.406 182.691 183.453L166.988 207.184H187.613Z" fill="#D22856"/>
</symbol><symbol id="timer" viewBox="0 0 238 276">
<path d="M211.314 81.6277L215.587 77.3408C221.752 71.1663 222.878 62.1925 218.086 57.4017C213.294 52.6109 204.334 53.7227 198.176 59.8971L193.871 64.208C176.746 50.2779 156.074 41.4187 134.187 38.6304V30.9603H140.305C149.019 30.9603 156.151 23.994 156.151 15.4842C156.151 6.97427 149.019 0 140.305 0H97.7208C89.0075 0 81.8755 6.96627 81.8755 15.4842C81.8755 24.002 89.0075 30.9603 97.7208 30.9603H103.839V38.6304C77.6967 41.9933 53.4093 53.9522 34.7872 72.6308C16.1652 91.3093 4.26218 115.651 0.945904 141.835C-2.37038 168.02 3.08771 194.566 16.4638 217.309C29.8399 240.052 50.377 257.704 74.8528 267.496C99.3286 277.288 126.358 278.665 151.7 271.412C177.042 264.16 199.263 248.687 214.875 227.421C230.488 206.156 238.609 180.302 237.964 153.915C237.32 127.529 227.946 102.103 211.314 81.6277ZM119.013 244.947C101.61 244.947 84.5984 239.779 70.1286 230.097C55.6589 220.414 44.3813 206.652 37.7219 190.551C31.0625 174.45 29.3205 156.733 32.7162 139.64C36.1119 122.547 44.4927 106.847 56.7989 94.5241C69.105 82.2015 84.7837 73.81 101.852 70.411C118.921 67.012 136.613 68.7581 152.69 75.4285C168.768 82.0989 182.509 93.3939 192.176 107.885C201.844 122.377 207.003 139.413 207.001 156.841C206.999 180.209 197.728 202.619 181.227 219.142C164.726 235.665 142.348 244.947 119.013 244.947Z" fill="#DEDEDE"/>
<circle cx="119" cy="157" r="93" stroke="#D22856" stroke-width="16"/>
<path d="M115.906 191H68V180.922L85.2031 163.531C90.2969 158.312 93.625 154.703 95.1875 152.703C96.75 150.672 97.875 148.797 98.5625 147.078C99.25 145.359 99.5938 143.578 99.5938 141.734C99.5938 138.984 98.8281 136.938 97.2969 135.594C95.7969 134.25 93.7812 133.578 91.25 133.578C88.5938 133.578 86.0156 134.188 83.5156 135.406C81.0156 136.625 78.4062 138.359 75.6875 140.609L67.8125 131.281C71.1875 128.406 73.9844 126.375 76.2031 125.188C78.4219 124 80.8438 123.094 83.4688 122.469C86.0938 121.812 89.0312 121.484 92.2812 121.484C96.5625 121.484 100.344 122.266 103.625 123.828C106.906 125.391 109.453 127.578 111.266 130.391C113.078 133.203 113.984 136.422 113.984 140.047C113.984 143.203 113.422 146.172 112.297 148.953C111.203 151.703 109.484 154.531 107.141 157.438C104.828 160.344 100.734 164.484 94.8594 169.859L86.0469 178.156V178.812H115.906V191ZM172.297 176.797H164.047V191H149.891V176.797H120.641V166.719L150.688 122.469H164.047V165.547H172.297V176.797ZM149.891 165.547V153.922C149.891 151.984 149.969 149.172 150.125 145.484C150.281 141.797 150.406 139.656 150.5 139.062H150.125C148.969 141.625 147.578 144.125 145.953 146.562L133.391 165.547H149.891Z" fill="#D22856"/>
</symbol><symbol id="triangle-white-footer-desktop" viewBox="0 0 1200 123">
<path d="M599.5 123L-120 0H1319L599.5 123Z" fill="white"/>
</symbol><symbol id="triangle-white-footer-tablet" viewBox="0 0 660 123">
<path d="M330 123L-270 0H930L330 123Z" fill="white"/>
</symbol><symbol id="triangle-white-footer" viewBox="0 0 320 123">
<path d="M160 123L-440 0H760L160 123Z" fill="white"/>
</symbol><symbol id="twitter">
<path d="M11.56.17a3.67 3.67 0 012.11-.03c.69.2 1.3.59 1.72 1.12.72-.2 1.42-.44 2.14-.65-.01.32-.1.63-.26.91a2.2 2.2 0 01-.65.73A1.8 1.8 0 0018 1.8c-.1.41-.3.8-.59 1.13-.29.33-.65.6-1.07.77C16.1 9.97 12.97 14.17 5.65 14h-.5C4.7 14 .73 13.56 0 12.23a7.28 7.28 0 004.98-1.09c-1.03-.29-2.85-.45-3.16-2.74.4.13.81.16 1.22.08C1.76 7.71.34 7.04.42 5c.4.3.9.47 1.42.44C1.1 5.2-.25 2.31.9.83c1.92 1.72 3.96 3.34 7.59 3.5C8.7 2.22 9.69.79 11.56.18z" fill="#D22856"/>
</symbol><symbol id="yes" viewBox="0 0 31 21">
<path d="M30.5559 0.429509C30.4134 0.293412 30.2439 0.185389 30.0571 0.111671C29.8703 0.0379536 29.67 0 29.4676 0C29.2653 0 29.065 0.0379536 28.8782 0.111671C28.6914 0.185389 28.5219 0.293412 28.3794 0.429509L10.3744 17.4958L2.5777 10.1097C2.28714 9.85325 1.90283 9.71362 1.50573 9.72025C1.10864 9.72689 0.72977 9.87928 0.448939 10.1453C0.168108 10.4114 0.00724504 10.7703 0.0002388 11.1464C-0.00676744 11.5226 0.140631 11.8867 0.41138 12.1619L9.29124 20.5741C9.4331 20.7094 9.60187 20.8167 9.7878 20.8898C9.97372 20.9629 10.1731 21.0004 10.3744 21C10.7806 20.9986 11.1698 20.8456 11.4576 20.5741L30.5559 2.48172C30.8405 2.20822 31 1.83963 31 1.45561C31 1.0716 30.8405 0.703003 30.5559 0.429509Z" fill="#3DC644"/>
</symbol><symbol id="youtube">
<path d="M1.83 12.8a1.25 1.25 0 01-1.28.04 1.1 1.1 0 01-.44-.46.97.97 0 01-.1-.6V1.22c-.03-.2 0-.41.1-.6C.2.42.35.27.55.16a1.26 1.26 0 011.28.03l12.4 5.5c1.03.45 1.03 1.17 0 1.62l-12.4 5.5z" fill="#D22856"/>
</symbol></svg>